<mxfile host="Electron" agent="Mozilla/5.0 (Windows NT 10.0; Win64; x64) AppleWebKit/537.36 (KHTML, like Gecko) draw.io/24.7.8 Chrome/128.0.6613.36 Electron/32.0.1 Safari/537.36" version="24.7.8">
  <diagram name="第 1 页" id="HxFXNJKx6h3pQ_oN9Vk9">
    <mxGraphModel dx="722" dy="472" grid="1" gridSize="10" guides="1" tooltips="1" connect="1" arrows="1" fold="1" page="1" pageScale="1" pageWidth="827" pageHeight="1169" math="0" shadow="0">
      <root>
        <mxCell id="0" />
        <mxCell id="1" parent="0" />
        <mxCell id="-zHUcj-Ou6YPBwA9V-vC-1" value="&lt;font style=&quot;font-size: 16px;&quot;&gt;&lt;b&gt;How MockMVC works under the hood?&lt;/b&gt;&lt;/font&gt;" style="text;html=1;align=center;verticalAlign=middle;whiteSpace=wrap;rounded=0;" vertex="1" parent="1">
          <mxGeometry x="280" y="30" width="190" height="30" as="geometry" />
        </mxCell>
        <mxCell id="-zHUcj-Ou6YPBwA9V-vC-2" value="&amp;nbsp; &amp;nbsp; &amp;nbsp; Tomcat" style="rounded=1;whiteSpace=wrap;html=1;verticalAlign=top;align=left;" vertex="1" parent="1">
          <mxGeometry x="240" y="90" width="280" height="220" as="geometry" />
        </mxCell>
        <mxCell id="-zHUcj-Ou6YPBwA9V-vC-16" style="rounded=0;orthogonalLoop=1;jettySize=auto;html=1;exitX=0.75;exitY=1;exitDx=0;exitDy=0;entryX=0.658;entryY=0.018;entryDx=0;entryDy=0;entryPerimeter=0;" edge="1" parent="1" source="-zHUcj-Ou6YPBwA9V-vC-3" target="-zHUcj-Ou6YPBwA9V-vC-8">
          <mxGeometry relative="1" as="geometry" />
        </mxCell>
        <mxCell id="-zHUcj-Ou6YPBwA9V-vC-8" value="&lt;i&gt;&amp;nbsp; &amp;nbsp; Spring MVC&lt;/i&gt;" style="rounded=1;whiteSpace=wrap;html=1;fillColor=#d5e8d4;strokeColor=#82b366;verticalAlign=top;align=left;" vertex="1" parent="1">
          <mxGeometry x="310" y="120" width="150" height="180" as="geometry" />
        </mxCell>
        <mxCell id="-zHUcj-Ou6YPBwA9V-vC-5" value="request" style="text;html=1;align=center;verticalAlign=middle;whiteSpace=wrap;rounded=0;fillColor=#fff2cc;strokeColor=#d6b656;" vertex="1" parent="1">
          <mxGeometry x="120" y="120" width="60" height="30" as="geometry" />
        </mxCell>
        <mxCell id="-zHUcj-Ou6YPBwA9V-vC-6" value="response" style="text;html=1;align=center;verticalAlign=middle;whiteSpace=wrap;rounded=0;fillColor=#dae8fc;strokeColor=#6c8ebf;" vertex="1" parent="1">
          <mxGeometry x="120" y="170" width="60" height="30" as="geometry" />
        </mxCell>
        <mxCell id="-zHUcj-Ou6YPBwA9V-vC-19" value="&amp;nbsp; &amp;nbsp; &amp;nbsp; &amp;nbsp;Tomcat" style="rounded=1;whiteSpace=wrap;html=1;verticalAlign=top;align=left;" vertex="1" parent="1">
          <mxGeometry x="150" y="340" width="370" height="240" as="geometry" />
        </mxCell>
        <mxCell id="-zHUcj-Ou6YPBwA9V-vC-20" style="rounded=0;orthogonalLoop=1;jettySize=auto;html=1;exitX=0.633;exitY=1.004;exitDx=0;exitDy=0;entryX=0.658;entryY=0.018;entryDx=0;entryDy=0;entryPerimeter=0;exitPerimeter=0;" edge="1" parent="1" source="-zHUcj-Ou6YPBwA9V-vC-22" target="-zHUcj-Ou6YPBwA9V-vC-27">
          <mxGeometry relative="1" as="geometry" />
        </mxCell>
        <mxCell id="-zHUcj-Ou6YPBwA9V-vC-24" value="MockHttpServletRequest" style="text;html=1;align=center;verticalAlign=middle;whiteSpace=wrap;rounded=0;fillColor=#fff2cc;strokeColor=#d6b656;" vertex="1" parent="1">
          <mxGeometry x="170" y="420" width="150" height="30" as="geometry" />
        </mxCell>
        <mxCell id="-zHUcj-Ou6YPBwA9V-vC-25" value="MockHttpServletResponse&lt;div&gt;&lt;/div&gt;" style="text;html=1;align=center;verticalAlign=middle;whiteSpace=wrap;rounded=0;fillColor=#dae8fc;strokeColor=#6c8ebf;" vertex="1" parent="1">
          <mxGeometry x="160" y="479.38" width="150" height="30" as="geometry" />
        </mxCell>
        <mxCell id="-zHUcj-Ou6YPBwA9V-vC-26" style="rounded=0;orthogonalLoop=1;jettySize=auto;html=1;exitX=0.359;exitY=0.037;exitDx=0;exitDy=0;entryX=0.347;entryY=1.009;entryDx=0;entryDy=0;exitPerimeter=0;entryPerimeter=0;" edge="1" parent="1" source="-zHUcj-Ou6YPBwA9V-vC-27" target="-zHUcj-Ou6YPBwA9V-vC-22">
          <mxGeometry relative="1" as="geometry" />
        </mxCell>
        <mxCell id="-zHUcj-Ou6YPBwA9V-vC-27" value="MockMVC" style="rounded=1;whiteSpace=wrap;html=1;verticalAlign=top;" vertex="1" parent="1">
          <mxGeometry x="370" y="439.38" width="130" height="110" as="geometry" />
        </mxCell>
        <mxCell id="-zHUcj-Ou6YPBwA9V-vC-28" style="rounded=0;orthogonalLoop=1;jettySize=auto;html=1;exitX=1;exitY=0.5;exitDx=0;exitDy=0;entryX=0.001;entryY=0.222;entryDx=0;entryDy=0;entryPerimeter=0;" edge="1" parent="1" source="-zHUcj-Ou6YPBwA9V-vC-5" target="-zHUcj-Ou6YPBwA9V-vC-2">
          <mxGeometry relative="1" as="geometry">
            <mxPoint x="330" y="148" as="targetPoint" />
            <mxPoint x="241" y="148" as="sourcePoint" />
          </mxGeometry>
        </mxCell>
        <mxCell id="-zHUcj-Ou6YPBwA9V-vC-29" style="rounded=0;orthogonalLoop=1;jettySize=auto;html=1;exitX=0.002;exitY=0.39;exitDx=0;exitDy=0;entryX=1;entryY=0.5;entryDx=0;entryDy=0;exitPerimeter=0;" edge="1" parent="1" source="-zHUcj-Ou6YPBwA9V-vC-2" target="-zHUcj-Ou6YPBwA9V-vC-6">
          <mxGeometry relative="1" as="geometry">
            <mxPoint x="330" y="184" as="sourcePoint" />
            <mxPoint x="242" y="184" as="targetPoint" />
          </mxGeometry>
        </mxCell>
        <mxCell id="-zHUcj-Ou6YPBwA9V-vC-31" value="&lt;font style=&quot;font-size: 14px;&quot;&gt;Normally, the request goes through Tomcat -&amp;gt; Servlet -&amp;gt; SpringMVC&lt;/font&gt;" style="text;html=1;align=left;verticalAlign=top;whiteSpace=wrap;rounded=0;fontSize=14;" vertex="1" parent="1">
          <mxGeometry x="540" y="141.25" width="190" height="68.75" as="geometry" />
        </mxCell>
        <mxCell id="-zHUcj-Ou6YPBwA9V-vC-32" value="&lt;font style=&quot;font-size: 14px;&quot;&gt;But for MockMVC, the request directly goes to Servlet -&amp;gt; SpringMVC&lt;/font&gt;&lt;div style=&quot;font-size: 14px;&quot;&gt;&lt;font style=&quot;font-size: 14px;&quot;&gt;&lt;br style=&quot;font-size: 14px;&quot;&gt;&lt;/font&gt;&lt;/div&gt;&lt;div style=&quot;font-size: 14px;&quot;&gt;&lt;font style=&quot;font-size: 14px;&quot;&gt;(During Spring integration tests, Tomcat may still be launched by default unless configurations changed, but the Mock request just doesn&#39;t pass through. The mocked request comes from &lt;b&gt;&lt;i&gt;inside&lt;/i&gt;&lt;/b&gt;.)&lt;/font&gt;&lt;/div&gt;" style="text;html=1;align=left;verticalAlign=top;whiteSpace=wrap;rounded=0;fontSize=14;" vertex="1" parent="1">
          <mxGeometry x="540" y="380" width="220" height="170" as="geometry" />
        </mxCell>
        <mxCell id="-zHUcj-Ou6YPBwA9V-vC-22" value="TestDispatcherServlet" style="rounded=1;whiteSpace=wrap;html=1;verticalAlign=middle;" vertex="1" parent="1">
          <mxGeometry x="375" y="469.38" width="120" height="50" as="geometry" />
        </mxCell>
        <mxCell id="-zHUcj-Ou6YPBwA9V-vC-21" style="rounded=0;orthogonalLoop=1;jettySize=auto;html=1;exitX=0;exitY=0.75;exitDx=0;exitDy=0;entryX=1;entryY=0.5;entryDx=0;entryDy=0;" edge="1" parent="1" source="-zHUcj-Ou6YPBwA9V-vC-22" target="-zHUcj-Ou6YPBwA9V-vC-25">
          <mxGeometry relative="1" as="geometry" />
        </mxCell>
        <mxCell id="-zHUcj-Ou6YPBwA9V-vC-23" style="rounded=0;orthogonalLoop=1;jettySize=auto;html=1;exitX=1;exitY=0.5;exitDx=0;exitDy=0;entryX=0;entryY=0.25;entryDx=0;entryDy=0;" edge="1" parent="1" source="-zHUcj-Ou6YPBwA9V-vC-24" target="-zHUcj-Ou6YPBwA9V-vC-22">
          <mxGeometry relative="1" as="geometry">
            <mxPoint x="240" y="435" as="targetPoint" />
          </mxGeometry>
        </mxCell>
        <mxCell id="-zHUcj-Ou6YPBwA9V-vC-3" value="DispatcherServlet" style="rounded=1;whiteSpace=wrap;html=1;verticalAlign=middle;" vertex="1" parent="1">
          <mxGeometry x="325" y="150" width="120" height="72.5" as="geometry" />
        </mxCell>
        <mxCell id="-zHUcj-Ou6YPBwA9V-vC-18" style="rounded=0;orthogonalLoop=1;jettySize=auto;html=1;exitX=0;exitY=0.75;exitDx=0;exitDy=0;entryX=0.006;entryY=0.382;entryDx=0;entryDy=0;entryPerimeter=0;" edge="1" parent="1" source="-zHUcj-Ou6YPBwA9V-vC-3" target="-zHUcj-Ou6YPBwA9V-vC-2">
          <mxGeometry relative="1" as="geometry" />
        </mxCell>
        <mxCell id="-zHUcj-Ou6YPBwA9V-vC-4" style="rounded=0;orthogonalLoop=1;jettySize=auto;html=1;exitX=0.005;exitY=0.218;exitDx=0;exitDy=0;entryX=0;entryY=0.25;entryDx=0;entryDy=0;exitPerimeter=0;" edge="1" parent="1" source="-zHUcj-Ou6YPBwA9V-vC-2" target="-zHUcj-Ou6YPBwA9V-vC-3">
          <mxGeometry relative="1" as="geometry">
            <mxPoint x="230" y="165" as="targetPoint" />
          </mxGeometry>
        </mxCell>
      </root>
    </mxGraphModel>
  </diagram>
</mxfile>
